<svg width="280" height="280" viewBox="0 0 280 280" fill="none" xmlns="http://www.w3.org/2000/svg">
<rect width="280" height="280" rx="30" fill="#191919"/>
<mask id="path-2-outside-1_542_8192" maskUnits="userSpaceOnUse" x="22" y="44" width="164" height="118" fill="black">
<rect fill="white" x="22" y="44" width="164" height="118"/>
<path d="M81.4168 55.3974H174.732V84.1438H87.9032C82.5962 84.1438 78.1245 85.9619 74.4882 89.5982C70.9502 93.1363 69.1812 97.5588 69.1812 102.866C69.1812 108.075 70.9502 112.497 74.4882 116.133C78.1245 119.671 82.5962 121.44 87.9032 121.44H174.732V150.187H81.4168C67.9527 150.187 56.6507 145.666 47.5108 136.624C38.4692 127.485 33.9484 116.232 33.9484 102.866C33.9484 89.4017 38.4692 78.1488 47.5108 69.1072C56.6507 59.9673 67.9527 55.3974 81.4168 55.3974Z"/>
</mask>
<path d="M81.4168 55.3974H174.732V84.1438H87.9032C82.5962 84.1438 78.1245 85.9619 74.4882 89.5982C70.9502 93.1363 69.1812 97.5588 69.1812 102.866C69.1812 108.075 70.9502 112.497 74.4882 116.133C78.1245 119.671 82.5962 121.44 87.9032 121.44H174.732V150.187H81.4168C67.9527 150.187 56.6507 145.666 47.5108 136.624C38.4692 127.485 33.9484 116.232 33.9484 102.866C33.9484 89.4017 38.4692 78.1488 47.5108 69.1072C56.6507 59.9673 67.9527 55.3974 81.4168 55.3974Z" fill="white"/>
<path d="M174.732 55.3974H185.732V44.3974H174.732V55.3974ZM174.732 84.1438V95.1438H185.732V84.1438H174.732ZM74.4882 89.5982L82.2664 97.3764L82.2664 97.3764L74.4882 89.5982ZM74.4882 116.133L66.6042 123.804L66.7093 123.912L66.8173 124.017L74.4882 116.133ZM174.732 121.44H185.732V110.44H174.732V121.44ZM174.732 150.187V161.187H185.732V150.187H174.732ZM47.5108 136.624L39.6907 144.36L39.7325 144.403L39.7748 144.445L47.5108 136.624ZM47.5108 69.1072L39.7326 61.329L39.7326 61.329L47.5108 69.1072ZM81.4168 66.3974H174.732V44.3974H81.4168V66.3974ZM163.732 55.3974V84.1438H185.732V55.3974H163.732ZM174.732 73.1438H87.9032V95.1438H174.732V73.1438ZM87.9032 73.1438C79.7831 73.1438 72.4818 76.0482 66.71 81.8201L82.2664 97.3764C83.7671 95.8756 85.4092 95.1438 87.9032 95.1438V73.1438ZM66.71 81.8201C60.9742 87.5558 58.1812 94.8378 58.1812 102.866H80.1812C80.1812 100.28 80.9261 98.7167 82.2664 97.3764L66.71 81.8201ZM58.1812 102.866C58.1812 110.855 61.0095 118.054 66.6042 123.804L82.3722 108.462C80.8908 106.94 80.1812 105.295 80.1812 102.866H58.1812ZM66.8173 124.017C72.6097 129.653 79.8773 132.44 87.9032 132.44V110.44C85.3151 110.44 83.6393 109.69 82.1591 108.249L66.8173 124.017ZM87.9032 132.44H174.732V110.44H87.9032V132.44ZM163.732 121.44V150.187H185.732V121.44H163.732ZM174.732 139.187H81.4168V161.187H174.732V139.187ZM81.4168 139.187C70.6972 139.187 62.2216 135.704 55.2468 128.804L39.7748 144.445C51.0798 155.628 65.2081 161.187 81.4168 161.187V139.187ZM55.3309 128.888C48.4147 121.897 44.9484 113.463 44.9484 102.866H22.9484C22.9484 119.001 28.5236 133.072 39.6907 144.36L55.3309 128.888ZM44.9484 102.866C44.9484 92.1472 48.4287 83.7457 55.2889 76.8854L39.7326 61.329C28.5097 72.552 22.9484 86.6562 22.9484 102.866H44.9484ZM55.2889 76.8854C62.272 69.9023 70.7345 66.3974 81.4168 66.3974V44.3974C65.1708 44.3974 51.0293 50.0323 39.7326 61.329L55.2889 76.8854Z" fill="#191919" mask="url(#path-2-outside-1_542_8192)"/>
<mask id="path-4-outside-2_542_8192" maskUnits="userSpaceOnUse" x="92" y="110" width="164" height="118" fill="black">
<rect fill="white" x="92" y="110" width="164" height="118"/>
<path d="M151.417 121.397H244.732V150.144H157.903C152.596 150.144 148.124 151.962 144.488 155.598C140.95 159.136 139.181 163.559 139.181 168.866C139.181 174.075 140.95 178.497 144.488 182.133C148.124 185.671 152.596 187.44 157.903 187.44H244.732V216.187H151.417C137.953 216.187 126.651 211.666 117.511 202.624C108.469 193.485 103.948 182.232 103.948 168.866C103.948 155.402 108.469 144.149 117.511 135.107C126.651 125.967 137.953 121.397 151.417 121.397Z"/>
</mask>
<path d="M151.417 121.397H244.732V150.144H157.903C152.596 150.144 148.124 151.962 144.488 155.598C140.95 159.136 139.181 163.559 139.181 168.866C139.181 174.075 140.95 178.497 144.488 182.133C148.124 185.671 152.596 187.44 157.903 187.44H244.732V216.187H151.417C137.953 216.187 126.651 211.666 117.511 202.624C108.469 193.485 103.948 182.232 103.948 168.866C103.948 155.402 108.469 144.149 117.511 135.107C126.651 125.967 137.953 121.397 151.417 121.397Z" fill="url(#paint0_linear_542_8192)"/>
<path d="M244.732 121.397H255.732V110.397H244.732V121.397ZM244.732 150.144V161.144H255.732V150.144H244.732ZM144.488 155.598L152.266 163.376L152.266 163.376L144.488 155.598ZM144.488 182.133L136.604 189.804L136.709 189.912L136.817 190.017L144.488 182.133ZM244.732 187.44H255.732V176.44H244.732V187.44ZM244.732 216.187V227.187H255.732V216.187H244.732ZM117.511 202.624L109.691 210.36L109.732 210.403L109.775 210.445L117.511 202.624ZM117.511 135.107L109.733 127.329L109.733 127.329L117.511 135.107ZM151.417 132.397H244.732V110.397H151.417V132.397ZM233.732 121.397V150.144H255.732V121.397H233.732ZM244.732 139.144H157.903V161.144H244.732V139.144ZM157.903 139.144C149.783 139.144 142.482 142.048 136.71 147.82L152.266 163.376C153.767 161.876 155.409 161.144 157.903 161.144V139.144ZM136.71 147.82C130.974 153.556 128.181 160.838 128.181 168.866H150.181C150.181 166.28 150.926 164.717 152.266 163.376L136.71 147.82ZM128.181 168.866C128.181 176.855 131.01 184.054 136.604 189.804L152.372 174.462C150.891 172.94 150.181 171.295 150.181 168.866H128.181ZM136.817 190.017C142.61 195.653 149.877 198.44 157.903 198.44V176.44C155.315 176.44 153.639 175.69 152.159 174.249L136.817 190.017ZM157.903 198.44H244.732V176.44H157.903V198.44ZM233.732 187.44V216.187H255.732V187.44H233.732ZM244.732 205.187H151.417V227.187H244.732V205.187ZM151.417 205.187C140.697 205.187 132.222 201.704 125.247 194.804L109.775 210.445C121.08 221.628 135.208 227.187 151.417 227.187V205.187ZM125.331 194.888C118.415 187.897 114.948 179.463 114.948 168.866H92.9484C92.9484 185.001 98.5236 199.072 109.691 210.36L125.331 194.888ZM114.948 168.866C114.948 158.147 118.429 149.746 125.289 142.885L109.733 127.329C98.5097 138.552 92.9484 152.656 92.9484 168.866H114.948ZM125.289 142.885C132.272 135.902 140.735 132.397 151.417 132.397V110.397C135.171 110.397 121.029 116.032 109.733 127.329L125.289 142.885Z" fill="#191919" mask="url(#path-4-outside-2_542_8192)"/>
<defs>
<linearGradient id="paint0_linear_542_8192" x1="195" y1="140.5" x2="282" y2="227.5" gradientUnits="userSpaceOnUse">
<stop stop-color="#FF4B00"/>
<stop offset="1" stop-color="#FF0000"/>
</linearGradient>
</defs>
</svg>
